PathFileType	4	(X/Y/Z)	/Users/itak/Documents/Research/Walk-IL/dataset/trc/00228_00009.trc
DataRate	CameraRate	NumFrames	NumMarkers	Units	OrigDataRate	OrigDataStartFrame	OrigNumFrames
100.000000	100.000000	4	53	mm	100.000000	289	771
Frame#	Time	RPSI			LPSI			L3			STRN			T10			C7			CLAV			RBAK			LBAK			LSHO			LUPA			LAEL			LAOL			LWTS			LWPS			LFRA			LIFD			LHPS			LHTS			RSHO			RUPA			RAEL			RAOL			RWTS			RWPS			RFRA			RIFD			RHTS			RHPS			RBHD			LFHD			RFHD			LBHD			LHIP			RHIP			RASI			LASI			LKNE			LTHI			LANK			LTIP			LTOE			LMT1			LMT5			LHEE			RKNE			RTHI			RANK			RTIP			RTOE			RMT1			RMT5			RHEE			
		X1	Y1	Z1	X2	Y2	Z2	X3	Y3	Z3	X4	Y4	Z4	X5	Y5	Z5	X6	Y6	Z6	X7	Y7	Z7	X8	Y8	Z8	X9	Y9	Z9	X10	Y10	Z10	X11	Y11	Z11	X12	Y12	Z12	X13	Y13	Z13	X14	Y14	Z14	X15	Y15	Z15	X16	Y16	Z16	X17	Y17	Z17	X18	Y18	Z18	X19	Y19	Z19	X20	Y20	Z20	X21	Y21	Z21	X22	Y22	Z22	X23	Y23	Z23	X24	Y24	Z24	X25	Y25	Z25	X26	Y26	Z26	X27	Y27	Z27	X28	Y28	Z28	X29	Y29	Z29	X30	Y30	Z30	X31	Y31	Z31	X32	Y32	Z32	X33	Y33	Z33	X34	Y34	Z34	X35	Y35	Z35	X36	Y36	Z36	X37	Y37	Z37	X38	Y38	Z38	X39	Y39	Z39	X40	Y40	Z40	X41	Y41	Z41	X42	Y42	Z42	X43	Y43	Z43	X44	Y44	Z44	X45	Y45	Z45	X46	Y46	Z46	X47	Y47	Z47	X48	Y48	Z48	X49	Y49	Z49	X50	Y50	Z50	X51	Y51	Z51	X52	Y52	Z52	X53	Y53	Z53	

290	2.89	896.0867919921875	1008.796264648438	347.371826171875	776.617431640625	1015.3720703125	365.5731201171875	820.2008056640625	1097.229858398438	363.6427307128906	769.7373046875	1271.304809570312	113.7246017456055	828.0473022460938	1224.439575195312	364.8456726074219	811.1818237304688	1482.740844726562	289.6415100097656	776.1876220703125	1389.994140625	133.1562347412109	900.169677734375	1347.567260742188	356.9829406738281	707.9500732421875	1446.9326171875	335.6023559570312	632.4755859375	1445.47607421875	260.3240966796875	562.1372680664062	1329.887939453125	315.3866577148438	531.6796264648438	1119.661499023438	321.7962646484375	594.595703125	1105.203247070312	382.734619140625	576.0468139648438	894.485595703125	208.7961730957031	501.3998718261719	874.8018798828125	245.3073577880859	515.4279174804688	1013.412414550781	298.0547790527344	567.4935913085938	701.9257202148438	193.9644775390625	501.7799377441406	788.9386596679688	220.7717590332031	548.4407958984375	796.1537475585938	170.9408416748047	964.0567016601562	1435.86083984375	198.6833953857422	1033.602661132812	1371.154541015625	207.3509674072266	1079.40625	1092.433227539062	237.06689453125	997.2216186523438	1086.187377929688	285.1043701171875	1022.220581054688	871.3916625976562	119.0401611328125	1093.728637695312	861.1113891601562	161.7232971191406	1089.294189453125	1023.241455078125	212.6494445800781	1021.378540039062	677.3706665039062	106.9425048828125	1035.497802734375	750.8919677734375	79.81139373779297	1092.590087890625	753.40380859375	124.5673294067383	861.417236328125	1640.157836914062	199.8742065429688	687.4612426757812	1657.447998046875	54.44218063354492	778.0369873046875	1651.420776367188	12.14316368103027	721.767822265625	1647.180053710938	215.9255218505859	618.7607421875	951.1763305664062	293.2117614746094	981.8889770507812	974.2687377929688	230.4270324707031	925.3349609375	1013.783142089844	143.8367156982422	646.901123046875	992.114013671875	183.5951843261719	696.5074462890625	471.8843994140625	305.8421020507812	655.1826171875	613.0764770507812	290.7472839355469	737.2866821289062	43.70566940307617	524.4097900390625	709.1600341796875	264.5916748046875	414.1919555664062	831.4298095703125	31.37030792236328	322.5289611816406	858.9180908203125	31.1357250213623	398.8560791015625	742.2835693359375	33.55891036987305	396.4747619628906	778.1737060546875	63.8996467590332	592.5814819335938	930.9174194335938	524.8494873046875	33.20262145996094	974.2471313476562	774.0828247070312	116.4294128417969	962.942138671875	23.75074577331543	-11.86960792541504	916.9393920898438	406.7308349609375	-3.316003799438477	823.8159790039062	59.86524963378906	-169.039794921875	812.280517578125	50.38129425048828	-100.0857620239258	928.4431762695312	31.14471435546875	-118.5549850463867	941.92626953125	21.21047401428223	71.36030578613281	
291	2.9	898.033203125	1008.670166015625	338.7246398925781	778.6744995117188	1015.117797851562	357.9262390136719	822.5728759765625	1097.00341796875	355.5444641113281	769.8466186523438	1271.589965820312	106.6924743652344	831.003173828125	1224.199951171875	357.1010131835938	813.891357421875	1482.691528320312	282.409912109375	776.8167114257812	1390.24951171875	126.2439422607422	903.3804321289062	1347.220581054688	348.623291015625	711.3289794921875	1447.016845703125	329.6385803222656	634.78125	1445.877685546875	255.4847717285156	565.4429321289062	1330.393310546875	312.1149291992188	534.7421264648438	1120.4833984375	320.1295776367188	599.116943359375	1106.204467773438	379.4985656738281	574.4818725585938	892.9395751953125	209.8659973144531	500.6869506835938	874.7343139648438	248.5140533447266	517.0889282226562	1013.994018554688	298.4425659179688	563.6109008789062	700.0509033203125	199.1898651123047	499.4795532226562	788.465576171875	225.7095642089844	545.1181640625	794.1101684570312	174.7212829589844	965.6277465820312	1435.538696289062	189.6848754882812	1035.09130859375	1370.640258789062	197.4295806884766	1080.464233398438	1091.775146484375	226.2686157226562	998.8041381835938	1085.682861328125	275.243408203125	1021.730346679688	870.529052734375	109.3596420288086	1093.809204101562	860.39306640625	151.1687316894531	1089.984497070312	1022.602172851562	201.8352966308594	1020.766235351562	676.3904418945312	97.80002593994141	1034.398559570312	749.901123046875	70.52005004882812	1092.245971679688	752.5864868164062	114.3401718139648	863.2271118164062	1640.194702148438	192.1256713867188	687.1671752929688	1657.85205078125	49.2540283203125	777.1180419921875	1651.822143554688	5.673003673553467	723.7950439453125	1647.275512695312	210.2944183349609	620.2845458984375	950.9104614257812	286.6979064941406	982.710693359375	974.3441772460938	220.7801208496094	925.6787109375	1013.810363769531	134.7414093017578	647.5621337890625	992.1358642578125	176.9822235107422	696.944580078125	471.5877380371094	299.2456359863281	655.9464111328125	612.8826293945312	284.3056030273438	737.4641723632812	45.91754150390625	523.7916259765625	709.64111328125	265.5185546875	410.4253234863281	831.4285278320312	31.30508041381836	322.3521728515625	858.7943725585938	31.74674797058105	398.4143676757812	742.3809814453125	33.67454528808594	396.144775390625	778.433349609375	67.43179321289062	591.6514892578125	928.7154541015625	525.0963745117188	23.90527153015137	973.8411254882812	774.0360717773438	106.661003112793	962.7515869140625	23.75824165344238	-12.09058094024658	914.7589111328125	406.1523742675781	-11.09643745422363	822.3493041992188	54.67142868041992	-170.2534790039062	811.3959350585938	46.83645248413086	-100.9286651611328	928.4024047851562	29.46587944030762	-119.0795745849609	941.7191162109375	22.02148246765137	71.15792846679688	
292	2.91	899.8501586914062	1008.740539550781	330.0292358398438	780.5936889648438	1015.017150878906	350.2433166503906	824.826171875	1097.0078125	347.391357421875	769.9160766601562	1272.079223632812	99.61698150634766	833.8469848632812	1224.169189453125	349.2726440429688	816.5556640625	1482.841186523438	275.1079406738281	777.4244995117188	1390.711547851562	119.2824554443359	906.47998046875	1347.071899414062	340.188720703125	714.6219482421875	1447.332641601562	323.5534057617188	637.0380859375	1446.507446289062	250.5084991455078	568.7052612304688	1331.149658203125	308.6984558105469	537.8828735351562	1121.576049804688	318.4725341796875	603.712646484375	1107.467041015625	376.1261901855469	572.9840698242188	891.7960815429688	210.9466247558594	500.2328491210938	875.031982421875	251.8202819824219	518.8753051757812	1014.87646484375	298.8352966308594	560.0549926757812	698.6795043945312	204.4248504638672	497.485107421875	788.4127197265625	230.7363433837891	541.9476318359375	792.5327758789062	178.5610046386719	967.1289672851562	1435.409423828125	180.6546173095703	1036.501586914062	1370.324462890625	187.4900360107422	1081.428100585938	1091.318725585938	215.4769439697266	1000.277587890625	1085.381713867188	265.3464050292969	1021.224182128906	869.9013061523438	99.610595703125	1093.829223632812	859.8912963867188	140.5964202880859	1090.583374023438	1022.168395996094	191.0227966308594	1020.140686035156	675.6290893554688	88.56848907470703	1033.324829101562	749.1450805664062	61.14608001708984	1091.871704101562	751.996826171875	104.0796508789062	865.0194702148438	1640.413940429688	184.3139953613281	686.8889770507812	1658.470581054688	44.02665710449219	776.216552734375	1652.431274414062	-0.8403218984603882	725.8602905273438	1647.582641601562	204.5843505859375	621.7208862304688	950.7747192382812	280.0924682617188	983.428955078125	974.68408203125	211.1062927246094	925.9608154296875	1014.113342285156	125.6070175170898	648.205078125	992.3170166015625	170.3421325683594	697.2920532226562	471.3127746582031	292.0342712402344	656.6920776367188	612.7472534179688	277.4490356445312	737.7122802734375	48.50983810424805	523.046875	710.1660766601562	266.6033020019531	406.2589721679688	831.4402465820312	31.26276588439941	322.1776428222656	858.708984375	32.45058441162109	397.9296875	742.5574340820312	33.81919860839844	395.7572937011719	778.7918701171875	71.50076293945312	590.4724731445312	926.6796875	525.3328247070312	15.01669025421143	973.45361328125	774.15234375	96.98329162597656	962.6234741210938	23.89987564086914	-12.14529609680176	912.748046875	405.6390380859375	-18.41571235656738	821.1502685546875	50.20594024658203	-171.2360076904297	810.7281494140625	43.85115051269531	-101.5938568115234	928.5684204101562	28.26597785949707	-119.4056930541992	941.5764770507812	22.74965858459473	71.07530212402344	
293	2.92	901.5592041015625	1009.010009765625	321.2804565429688	782.4063110351562	1015.074829101562	342.544921875	826.9819946289062	1097.243896484375	339.2009887695312	769.934326171875	1272.767944335938	92.50875854492188	836.5830078125	1224.347412109375	341.364501953125	819.1644287109375	1483.188110351562	267.7419738769531	777.993896484375	1391.373168945312	112.2789306640625	909.4677124023438	1347.120361328125	331.6856079101562	717.8221435546875	1447.880615234375	317.3573303222656	639.2466430664062	1447.36474609375	245.4035186767578	571.8986206054688	1332.160766601562	305.1282348632812	541.0668334960938	1122.937377929688	316.8088684082031	608.33447265625	1108.992797851562	372.6199645996094	571.5736083984375	891.0607299804688	212.0161590576172	500.0565185546875	875.68359375	255.1985931396484	520.7774047851562	1016.05712890625	299.2069702148438	556.8934936523438	697.8092651367188	209.6123962402344	495.8404541015625	788.7642211914062	235.8017120361328	538.9730834960938	791.41943359375	182.4184112548828	968.5451049804688	1435.472290039062	171.5906524658203	1037.824829101562	1370.20947265625	177.5328063964844	1082.305419921875	1091.069946289062	204.6986541748047	1001.651428222656	1085.286254882812	255.4240875244141	1020.693054199219	869.5147705078125	89.80292510986328	1093.78564453125	859.6109008789062	130.0034484863281	1091.098388671875	1021.943237304688	180.2163238525391	1019.486267089844	675.1017456054688	79.23468780517578	1032.26953125	748.63818359375	51.671142578125	1091.453002929688	751.64111328125	93.77434539794922	866.7841186523438	1640.807373046875	176.4483032226562	686.6238403320312	1659.3017578125	38.76010131835938	775.3325805664062	1653.242431640625	-7.394886493682861	727.9560546875	1648.100708007812	198.7922515869141	623.0890502929688	950.7772827148438	273.4620361328125	984.0523071289062	975.2750854492188	201.4017944335938	926.1622314453125	1014.681579589844	116.4279861450195	648.8131103515625	992.6589965820312	163.7207489013672	697.5022583007812	471.0488586425781	284.1664123535156	657.4008178710938	612.6651611328125	270.1698303222656	738.057861328125	51.51132965087891	522.1494140625	710.6778564453125	267.8751525878906	401.6520690917969	831.4758911132812	31.238037109375	322.007080078125	858.6813354492188	33.24901580810547	397.394287109375	742.8223876953125	33.99356460571289	395.3092651367188	779.2744140625	76.15068817138672	588.9823608398438	924.8560180664062	525.5084228515625	6.625480175018311	973.0654907226562	774.4071044921875	87.41689300537109	962.5404663085938	24.12317657470703	-12.13115406036377	910.9442138671875	405.155029296875	-25.21052551269531	820.1795043945312	46.52577972412109	-172.0272521972656	810.2325439453125	41.44692230224609	-102.1265869140625	928.8546142578125	27.48947525024414	-119.6151504516602	941.493896484375	23.3666820526123	71.03736877441406	
